<?xml version="1.0" encoding="UTF-8"?>
<svg id="Ebene_1" data-name="Ebene 1" xmlns="http://www.w3.org/2000/svg" xmlns:xlink="http://www.w3.org/1999/xlink" viewBox="0 0 100.51 71">
  <defs>
    <style>
      .cls-1 {
        fill: #a1c854;
      }

      .cls-2 {
        fill: #c1d98d;
      }

      .cls-3 {
        clip-path: url(#clippath);
      }

      .cls-4 {
        fill: none;
      }
    </style>
    <clipPath id="clippath">
      <rect class="cls-4" width="100.43" height="70.89"/>
    </clipPath>
  </defs>
  <g class="cls-3">
    <g>
      <path class="cls-1" d="m18.41,60.44h-.64v10.56h.64v-10.56Z"/>
      <path class="cls-2" d="m17.77,61.45C7.63,60.83,0,51.67,0,39.94,0,25.37,9,15.09,17.77,6.14v55.3Z"/>
      <path class="cls-1" d="m23.91,36.87h6.14v6.14h-6.14v-6.14Zm-6.15-24.58v49.16h6.15v-6.15h6.14v-6.14h6.14v-6.14h6.14v-6.15h-6.14v-6.14h-6.14v-6.15h-6.14v-6.15h6.14v6.15h6.14v-6.15h-6.14v-6.14h-12.29Zm12.29,0h6.14v-6.14h-6.15v6.14Zm-12.29-6.14h6.15V0h-6.15v6.14Zm18.43,0h6.14V0h-6.14v6.14Z"/>
      <path d="m58.47,23.35c0,.62-.12,1.17-.35,1.65-.24.48-.55.87-.95,1.18-.47.37-.97.63-1.51.79-.54.15-1.23.23-2.08.23h-3.58v-12.5h3.32c.89,0,1.56.03,2,.09.45.06.88.19,1.28.41.45.24.78.56.98.95.21.39.31.84.31,1.37,0,.59-.16,1.11-.47,1.58-.31.46-.74.83-1.28,1.09v.07c.74.2,1.32.57,1.73,1.11.41.53.61,1.2.61,2Zm-2.32-5.61c0-.3-.05-.56-.15-.78-.1-.22-.26-.4-.49-.53-.27-.15-.57-.24-.9-.28-.33-.03-.79-.05-1.37-.05h-1.59v3.66h1.89c.52,0,.9-.03,1.15-.08.25-.06.5-.17.76-.34.25-.16.43-.37.54-.64.11-.26.16-.59.16-.97Zm.59,5.67c0-.47-.07-.86-.2-1.16-.13-.31-.41-.57-.81-.78-.26-.14-.55-.23-.86-.27-.31-.04-.75-.06-1.32-.06h-1.89v4.62h1.35c.73,0,1.3-.03,1.72-.1.42-.07.79-.21,1.11-.43.31-.22.54-.46.69-.74.15-.28.22-.64.22-1.08Z"/>
      <path d="m61.62,27.18h-1.58v-9.38h1.58v9.38Zm.11-10.95h-1.8v-1.64h1.8v1.64Z"/>
      <path d="m66.77,27.37c-.86,0-1.53-.24-2.01-.73-.48-.49-.72-1.27-.72-2.32v-5.2h-1.07v-1.31h1.07v-2.69h1.58v2.69h2.9v1.31h-2.9v4.46c0,.48,0,.84.03,1.1.02.26.08.5.19.72.1.2.25.34.46.44.21.1.5.14.86.14.26,0,.51-.04.75-.11.24-.08.41-.14.52-.19h.09v1.42c-.3.08-.6.15-.91.19-.3.05-.58.08-.84.08Z"/>
      <path d="m72.22,27.41c-.63,0-1.21-.08-1.76-.25-.54-.17-.99-.35-1.35-.54v-1.77h.08c.13.11.29.22.47.35.18.13.43.26.73.4.27.12.56.23.88.33.32.1.66.14,1.01.14.25,0,.52-.03.81-.08.29-.06.5-.14.64-.23.2-.13.34-.27.42-.41.09-.15.13-.36.13-.65,0-.37-.1-.66-.31-.85-.2-.19-.56-.35-1.08-.48-.2-.05-.46-.11-.79-.18-.32-.07-.62-.14-.9-.22-.72-.21-1.24-.53-1.56-.96-.32-.44-.49-.96-.49-1.58,0-.84.32-1.53.96-2.06.64-.53,1.49-.8,2.54-.8.52,0,1.04.06,1.57.19.53.13.97.29,1.33.49v1.69h-.08c-.4-.32-.85-.57-1.35-.76-.49-.18-.99-.28-1.49-.28s-.96.11-1.32.33-.54.55-.54.99c0,.39.11.69.32.88.21.19.55.35,1.02.47.23.06.5.12.78.18.29.06.6.12.91.2.69.17,1.21.46,1.56.86.35.4.53.95.53,1.65,0,.4-.08.79-.24,1.15-.16.36-.39.67-.7.92-.34.28-.72.49-1.14.64-.42.15-.95.22-1.59.22Z"/>
      <path d="m93.72,27.18h-2.15l-1.71-1.79c-.57.73-1.16,1.25-1.76,1.57-.6.32-1.28.48-2.04.48-1.13,0-2.06-.34-2.8-1.02-.73-.68-1.1-1.58-1.1-2.68,0-.48.07-.91.2-1.28.13-.37.31-.71.54-1.02.22-.29.47-.55.76-.76.29-.22.56-.42.82-.58-.56-.38-.99-.78-1.27-1.2-.28-.42-.42-.95-.42-1.59,0-.4.08-.76.23-1.1.16-.34.37-.64.63-.9.27-.26.62-.48,1.04-.65.43-.17.9-.25,1.41-.25.93,0,1.69.25,2.27.74.59.49.88,1.11.88,1.85,0,.27-.04.56-.11.86-.07.29-.19.57-.38.85s-.43.53-.73.77c-.3.24-.69.45-1.19.63l2.95,3.04c.08-.46.13-.96.14-1.49.02-.54.03-1.25.03-2.12h1.64v.81c0,.54-.07,1.14-.21,1.82-.13.67-.36,1.31-.67,1.91l3,3.09Zm-4.59-2.53l-3.86-3.95c-.14.09-.28.2-.42.32-.14.12-.29.31-.46.55-.13.2-.25.45-.36.77-.1.31-.15.65-.15,1,0,.79.24,1.45.71,1.96.48.51,1.12.76,1.92.76.54,0,1.02-.11,1.45-.34.43-.23.82-.59,1.17-1.08Zm-3.07-5.13c.31-.11.57-.25.77-.43.21-.18.37-.37.48-.59.1-.2.18-.4.23-.62.05-.22.08-.45.08-.71,0-.54-.16-.96-.48-1.26-.31-.3-.68-.44-1.1-.44-.5,0-.89.17-1.18.5-.29.34-.43.76-.43,1.26,0,.22.02.42.06.58.04.16.13.34.27.55.12.17.28.36.49.55.21.2.48.39.81.6Z"/>
      <path d="m58.47,39.9c0,.62-.12,1.17-.35,1.65-.24.48-.55.87-.95,1.18-.47.37-.97.63-1.51.79-.54.15-1.23.23-2.08.23h-3.58v-12.5h3.32c.89,0,1.56.03,2,.09.45.06.88.19,1.28.41.45.24.78.56.98.95.21.39.31.84.31,1.37,0,.59-.16,1.11-.47,1.58-.31.46-.74.83-1.28,1.09v.07c.74.2,1.32.57,1.73,1.11.41.53.61,1.2.61,2Zm-2.32-5.61c0-.3-.05-.56-.15-.78-.1-.22-.26-.4-.49-.53-.27-.15-.57-.24-.9-.28-.33-.03-.79-.05-1.37-.05h-1.59v3.66h1.89c.52,0,.9-.03,1.15-.08.25-.06.5-.17.76-.34.25-.16.43-.37.54-.64.11-.26.16-.59.16-.97Zm.59,5.67c0-.47-.07-.86-.2-1.16-.13-.31-.41-.57-.81-.78-.26-.14-.55-.23-.86-.27-.31-.04-.75-.06-1.32-.06h-1.89v4.62h1.35c.73,0,1.3-.03,1.72-.1.42-.07.79-.21,1.11-.43.31-.22.54-.46.69-.74.15-.28.22-.64.22-1.08Z"/>
      <path d="m65.24,41.43v-2.6c-.37.03-.85.08-1.43.14-.57.06-1.03.14-1.38.24-.42.13-.77.33-1.04.6-.27.26-.41.63-.41,1.11,0,.54.15.94.45,1.22.3.27.74.41,1.33.41.5,0,.95-.11,1.35-.32.4-.22.78-.48,1.13-.8Zm0,1.31c-.13.1-.3.23-.52.4-.21.17-.42.3-.62.4-.28.15-.55.26-.81.34-.26.08-.62.12-1.09.12-.39,0-.75-.07-1.1-.22-.35-.15-.65-.35-.91-.61-.25-.26-.45-.57-.6-.95-.15-.38-.23-.78-.23-1.2,0-.65.14-1.2.41-1.65.27-.46.71-.82,1.3-1.09.53-.24,1.15-.41,1.86-.5.72-.1,1.49-.17,2.32-.21v-.3c0-.37-.06-.67-.17-.89-.11-.23-.27-.41-.47-.53-.2-.13-.45-.21-.74-.25-.29-.04-.59-.07-.9-.07-.36,0-.79.06-1.28.17-.49.11-.98.26-1.48.47h-.09v-1.6c.29-.08.71-.18,1.25-.28.54-.1,1.08-.15,1.61-.15.64,0,1.19.05,1.63.15.44.1.84.28,1.19.55.34.26.6.59.76,1,.17.41.25.91.25,1.49v6.41h-1.57v-1Zm.63-9.95h-1.69v-1.64h1.69v1.64Zm-3.47,0h-1.69v-1.64h1.69v1.64Z"/>
      <path d="m76.34,43.74h-1.58v-1.04c-.49.43-.95.75-1.38.97-.44.22-.92.33-1.46.33-.41,0-.79-.07-1.16-.2-.36-.13-.67-.35-.94-.64-.27-.29-.48-.66-.63-1.1-.15-.44-.22-.98-.22-1.61v-6.09h1.58v5.34c0,.5.02.91.05,1.24.04.32.12.61.25.86.13.24.3.42.52.53.22.11.54.17.96.17.39,0,.8-.11,1.23-.33.44-.22.84-.49,1.2-.81v-7h1.58v9.38Z"/>
      <path d="m89.26,43.74v-5.42c0-.43-.02-.83-.05-1.19-.03-.37-.1-.66-.21-.86-.11-.22-.27-.39-.48-.5-.21-.11-.49-.16-.84-.16-.32,0-.67.1-1.05.3-.37.2-.75.48-1.15.86,0,.1.01.21.02.34.01.13.02.28.02.46v6.17h-1.58v-5.42c0-.43-.02-.83-.05-1.19-.03-.37-.1-.66-.21-.86-.11-.22-.27-.39-.48-.5-.21-.11-.49-.16-.84-.16s-.7.11-1.07.32c-.37.21-.74.48-1.09.81v7h-1.58v-9.38h1.58v1.04c.41-.41.82-.73,1.23-.96.41-.23.86-.34,1.34-.34.55,0,1.04.13,1.47.38.43.25.76.67.98,1.24.48-.53.94-.93,1.39-1.21.45-.27.95-.41,1.48-.41.4,0,.77.06,1.1.19.33.12.62.32.86.6.25.29.44.64.58,1.07.14.43.21.96.21,1.6v6.17h-1.58Z"/>
      <path d="m97.13,43.96c-1.49,0-2.65-.42-3.48-1.26-.82-.84-1.23-2.04-1.23-3.59s.4-2.74,1.2-3.64c.8-.91,1.85-1.36,3.14-1.36.58,0,1.1.08,1.54.25.45.17.84.43,1.18.79.34.36.59.8.77,1.32.18.51.27,1.15.27,1.9v.86h-6.5c0,1.09.27,1.92.82,2.5.55.58,1.31.86,2.27.86.35,0,.69-.04,1.02-.12.34-.08.64-.18.91-.3.29-.13.53-.25.72-.37.2-.12.36-.24.49-.34h.09v1.72c-.18.07-.41.17-.69.28-.27.11-.52.19-.74.25-.31.08-.59.15-.84.19-.25.04-.56.07-.94.07Zm1.85-5.95c-.01-.43-.06-.79-.15-1.1-.09-.31-.22-.57-.39-.78-.18-.23-.42-.41-.71-.54-.29-.12-.64-.18-1.07-.18s-.78.06-1.07.19c-.29.12-.56.3-.8.55-.23.25-.41.52-.54.82-.12.3-.2.64-.23,1.04h4.96Z"/>
      <g>
        <path class="cls-1" d="m54.32,54.71l-.1-.86h-.04c-.38.54-1.12,1.02-2.1,1.02-1.39,0-2.1-.98-2.1-1.97,0-1.66,1.47-2.56,4.12-2.55v-.14c0-.57-.16-1.59-1.56-1.59-.64,0-1.3.2-1.78.51l-.28-.82c.57-.37,1.39-.61,2.25-.61,2.1,0,2.6,1.43,2.6,2.8v2.56c0,.59.03,1.18.11,1.64h-1.13Zm-.18-3.5c-1.36-.03-2.9.21-2.9,1.54,0,.81.54,1.19,1.18,1.19.89,0,1.46-.57,1.66-1.15.04-.13.07-.27.07-.4v-1.19Z"/>
        <path class="cls-1" d="m63.09,52.84c0,.71.01,1.33.06,1.87h-1.1l-.07-1.12h-.03c-.33.55-1.05,1.27-2.27,1.27-1.08,0-2.36-.59-2.36-3v-4.01h1.25v3.79c0,1.3.4,2.18,1.53,2.18.84,0,1.42-.58,1.64-1.13.07-.18.11-.41.11-.64v-4.2h1.25v4.98Z"/>
        <path class="cls-1" d="m65.74,47.86l.98,1.47c.25.38.47.74.69,1.12h.04c.23-.41.45-.76.68-1.13l.96-1.46h1.35l-2.34,3.31,2.41,3.54h-1.42l-1.01-1.54c-.27-.4-.5-.78-.74-1.19h-.03c-.23.41-.47.78-.72,1.19l-.99,1.54h-1.37l2.43-3.5-2.32-3.36h1.39Z"/>
        <path class="cls-1" d="m74.52,50.42v.92h-3.5v-.92h3.5Z"/>
        <path class="cls-1" d="m75.98,49.71c0-.71-.01-1.29-.06-1.85h1.09l.06,1.1h.04c.38-.65,1.02-1.26,2.15-1.26.93,0,1.64.57,1.94,1.37h.03c.21-.38.48-.68.76-.89.41-.31.86-.48,1.51-.48.91,0,2.25.59,2.25,2.97v4.03h-1.22v-3.88c0-1.32-.48-2.11-1.49-2.11-.71,0-1.26.52-1.47,1.13-.06.17-.1.4-.1.62v4.23h-1.22v-4.11c0-1.09-.48-1.88-1.43-1.88-.78,0-1.34.62-1.54,1.25-.07.18-.1.4-.1.61v4.13h-1.22v-5Z"/>
        <path class="cls-1" d="m93.53,52.84c0,.71.01,1.33.06,1.87h-1.1l-.07-1.12h-.03c-.33.55-1.05,1.27-2.27,1.27-1.08,0-2.36-.59-2.36-3v-4.01h1.24v3.79c0,1.3.4,2.18,1.53,2.18.83,0,1.42-.58,1.64-1.13.07-.18.11-.41.11-.64v-4.2h1.24v4.98Z"/>
        <path class="cls-1" d="m100.48,54.46c-.33.17-1.05.4-1.97.4-2.07,0-3.41-1.4-3.41-3.5s1.44-3.64,3.68-3.64c.74,0,1.39.18,1.73.35l-.28.96c-.3-.17-.77-.33-1.44-.33-1.57,0-2.42,1.16-2.42,2.59,0,1.59,1.02,2.56,2.38,2.56.71,0,1.17-.18,1.53-.34l.21.93Z"/>
      </g>
    </g>
  </g>
</svg>